<?xml version="1.0" standalone="no"?>
<!DOCTYPE svg PUBLIC "-//W3C//DTD SVG 20010904//EN"
 "http://www.w3.org/TR/2001/REC-SVG-20010904/DTD/svg10.dtd">
<svg version="1.0" xmlns="http://www.w3.org/2000/svg"
 width="147.000000pt" height="17.000000pt" viewBox="0 0 147.000000 17.000000"
 preserveAspectRatio="xMidYMid meet">

<g transform="translate(0.000000,17.000000) scale(0.100000,-0.100000)"
fill="#000000" stroke="none">
<path d="M240 167 c0 -9 -22 -125 -27 -141 -4 -14 -1 -18 10 -13 8 3 19 1 25
-5 16 -16 60 16 68 47 10 42 -2 58 -39 52 -32 -5 -33 -4 -29 29 2 19 1 34 -2
34 -3 0 -6 -1 -6 -3z m58 -95 c5 -30 -16 -54 -42 -50 -16 2 -21 9 -19 32 4 48
55 63 61 18z"/>
<path d="M540 151 c0 -37 -10 -48 -38 -43 -31 4 -47 -10 -57 -49 -8 -31 19
-64 44 -53 9 3 22 7 28 7 14 0 19 13 28 77 4 25 9 53 11 63 3 9 1 17 -5 17 -6
0 -11 -9 -11 -19z m-14 -64 c3 -8 0 -26 -6 -41 -7 -20 -16 -27 -33 -24 -43 6
-30 78 15 78 10 0 21 -6 24 -13z"/>
<path d="M696 140 c-20 -107 -23 -130 -16 -130 10 0 34 135 27 152 -2 7 -7 -3
-11 -22z"/>
<path d="M375 101 c37 -8 35 -23 -4 -34 -55 -14 -45 -71 11 -60 22 4 28 12 33
44 8 49 1 59 -38 58 l-32 -1 30 -7z m23 -58 c-4 -22 -48 -31 -48 -10 0 19 10
27 32 27 13 0 18 -6 16 -17z"/>
<path d="M605 101 c37 -8 35 -23 -4 -34 -55 -14 -45 -71 11 -60 22 4 28 12 33
44 8 49 1 59 -38 58 l-32 -1 30 -7z m23 -58 c-4 -22 -48 -31 -48 -10 0 19 10
27 32 27 13 0 18 -6 16 -17z"/>
<path d="M739 94 c-12 -15 -11 -19 9 -32 31 -20 28 -42 -5 -42 -20 0 -24 -3
-16 -11 14 -14 49 -3 58 19 4 11 -1 23 -14 34 -27 21 -27 36 2 41 21 4 21 4 1
6 -12 0 -28 -6 -35 -15z"/>
<path d="M1017 92 c-37 -41 -4 -109 41 -83 15 9 13 10 -9 11 -15 0 -30 7 -33
16 -9 23 18 62 46 67 21 4 21 4 -3 6 -14 0 -33 -7 -42 -17z"/>
<path d="M1123 102 c-6 -4 -16 -20 -22 -35 -9 -23 -7 -31 8 -46 36 -36 85 -5
79 51 -2 27 -8 33 -28 36 -14 1 -30 -1 -37 -6z m54 -18 c9 -24 -14 -64 -37
-64 -26 0 -36 24 -22 56 13 27 49 33 59 8z"/>
<path d="M1230 100 c-1 -3 -5 -24 -9 -47 -5 -24 -5 -43 -1 -43 5 0 11 18 15
39 6 38 26 57 47 45 5 -4 7 -23 3 -46 -5 -29 -4 -39 4 -34 6 4 11 20 11 35 0
29 16 51 38 51 10 0 13 -11 10 -45 -2 -25 0 -45 4 -45 9 0 21 77 14 89 -6 9
-136 11 -136 1z"/>
</g>
</svg>
