<svg id="svg" version="1.1" xmlns="http://www.w3.org/2000/svg" xmlns:xlink="http://www.w3.org/1999/xlink" width="400" height="44.97607655502392" viewBox="0, 0, 400,44.97607655502392"><g id="svgg"><path id="path0" d="M232.901 20.358 C 232.820 20.489,232.857 20.507,233.016 20.414 C 233.145 20.338,233.107 20.439,232.932 20.639 C 232.756 20.839,232.657 21.046,232.711 21.100 C 232.764 21.153,232.709 21.528,232.587 21.932 C 232.466 22.336,232.434 22.624,232.516 22.573 C 232.599 22.522,232.667 22.560,232.667 22.657 C 232.667 22.754,232.587 22.833,232.490 22.833 C 232.393 22.833,232.360 22.908,232.417 23.000 C 232.473 23.092,232.436 23.167,232.333 23.167 C 232.231 23.167,232.195 23.245,232.255 23.341 C 232.314 23.436,232.294 23.605,232.210 23.716 C 232.127 23.826,232.049 24.285,232.036 24.735 C 232.024 25.184,231.936 25.631,231.840 25.726 C 231.745 25.822,231.667 26.077,231.667 26.294 C 231.667 26.511,231.586 26.838,231.488 27.022 C 231.361 27.261,231.363 27.418,231.497 27.579 C 231.635 27.746,231.631 27.836,231.482 27.928 C 231.347 28.011,231.326 27.981,231.417 27.833 C 231.500 27.699,231.486 27.656,231.380 27.721 C 231.286 27.779,231.226 28.109,231.247 28.455 C 231.268 28.801,231.212 29.177,231.122 29.292 C 231.033 29.406,231.015 29.500,231.083 29.500 C 231.152 29.500,231.105 29.625,230.979 29.777 C 230.802 29.992,230.797 30.070,230.957 30.124 C 231.110 30.175,231.096 30.261,230.902 30.455 C 230.758 30.599,230.677 30.855,230.722 31.025 C 230.766 31.195,230.734 31.292,230.651 31.240 C 230.427 31.102,230.468 31.399,230.708 31.658 C 230.827 31.786,230.836 31.837,230.729 31.777 C 230.526 31.664,230.266 32.590,230.427 32.850 C 230.478 32.933,230.449 33.000,230.362 33.000 C 230.275 33.000,230.171 33.225,230.131 33.500 C 230.091 33.776,230.134 34.000,230.227 34.000 C 230.321 34.000,230.279 34.094,230.135 34.208 C 229.813 34.464,229.646 35.298,229.899 35.384 C 230.033 35.429,230.032 35.510,229.896 35.681 C 229.794 35.811,229.731 36.048,229.757 36.208 C 229.783 36.369,229.744 36.500,229.671 36.500 C 229.444 36.500,229.362 37.128,229.561 37.344 C 229.704 37.499,229.699 37.520,229.542 37.431 C 229.414 37.359,229.333 37.414,229.333 37.573 C 229.333 37.999,229.313 38.074,229.138 38.284 C 229.046 38.395,229.022 38.567,229.083 38.667 C 229.145 38.766,229.114 38.946,229.015 39.066 C 228.915 39.185,228.862 39.521,228.896 39.812 C 228.929 40.102,228.895 40.379,228.819 40.425 C 228.743 40.472,228.723 40.621,228.775 40.755 C 228.827 40.890,228.778 41.000,228.667 41.000 C 228.555 41.000,228.505 41.105,228.554 41.234 C 228.603 41.362,228.597 41.514,228.539 41.572 C 228.348 41.763,228.360 42.167,228.556 42.169 C 228.675 42.171,228.660 42.229,228.517 42.319 C 228.389 42.400,228.329 42.582,228.383 42.722 C 228.437 42.863,228.410 43.002,228.323 43.031 C 228.236 43.060,228.138 43.392,228.106 43.769 C 228.074 44.146,227.996 44.538,227.933 44.640 C 227.849 44.776,231.451 44.827,241.392 44.831 L 254.966 44.837 255.170 44.294 C 255.409 43.659,255.462 43.439,255.551 42.714 C 255.587 42.419,255.711 42.064,255.827 41.924 C 255.943 41.785,255.994 41.557,255.941 41.419 C 255.887 41.280,255.925 41.167,256.025 41.167 C 256.124 41.167,256.166 41.017,256.118 40.833 C 256.070 40.650,256.107 40.453,256.200 40.396 C 256.305 40.331,256.284 40.238,256.143 40.148 C 255.952 40.028,255.952 40.005,256.143 40.003 C 256.283 40.001,256.329 39.897,256.265 39.729 C 256.208 39.580,256.246 39.356,256.349 39.231 C 256.453 39.106,256.494 38.891,256.441 38.752 C 256.387 38.613,256.425 38.500,256.523 38.500 C 256.628 38.500,256.662 38.339,256.606 38.114 C 256.549 37.888,256.618 37.572,256.773 37.351 C 256.940 37.112,257.001 36.799,256.940 36.494 C 256.888 36.229,256.922 35.965,257.017 35.906 C 257.112 35.848,257.152 35.702,257.106 35.583 C 257.060 35.464,257.072 35.317,257.132 35.257 C 257.192 35.197,257.259 34.872,257.280 34.535 C 257.302 34.197,257.398 33.895,257.493 33.863 C 257.589 33.832,257.667 33.732,257.667 33.643 C 257.667 33.554,257.598 33.523,257.515 33.574 C 257.326 33.691,257.382 33.225,257.577 33.046 C 257.656 32.975,257.659 33.029,257.583 33.167 C 257.506 33.308,257.510 33.359,257.592 33.284 C 257.673 33.211,257.752 32.986,257.769 32.784 C 257.869 31.590,257.919 31.333,258.056 31.333 C 258.139 31.333,258.122 31.231,258.018 31.105 C 257.874 30.932,257.891 30.826,258.089 30.662 C 258.232 30.544,258.306 30.337,258.255 30.202 C 258.203 30.068,258.241 29.861,258.339 29.744 C 258.462 29.594,258.463 29.497,258.341 29.421 C 258.225 29.350,258.220 29.212,258.327 29.012 C 258.416 28.846,258.441 28.663,258.383 28.605 C 258.325 28.547,258.363 28.500,258.467 28.500 C 258.571 28.500,258.613 28.387,258.559 28.248 C 258.506 28.109,258.536 27.903,258.627 27.790 C 258.717 27.676,258.769 27.452,258.743 27.292 C 258.717 27.131,258.783 26.999,258.890 26.997 C 258.999 26.996,258.975 26.925,258.833 26.833 C 258.621 26.696,258.628 26.671,258.881 26.669 C 259.132 26.667,259.149 26.612,258.989 26.313 C 258.884 26.117,258.874 26.005,258.966 26.062 C 259.057 26.119,259.175 26.053,259.227 25.916 C 259.280 25.779,259.231 25.666,259.120 25.664 C 258.988 25.662,258.977 25.619,259.089 25.539 C 259.184 25.472,259.254 25.304,259.245 25.167 C 259.237 25.029,259.280 24.842,259.342 24.750 C 259.404 24.658,259.466 24.471,259.480 24.333 C 259.561 23.535,259.629 23.083,259.666 23.083 C 259.709 23.083,259.747 22.884,259.889 21.917 C 259.929 21.642,259.980 21.417,260.002 21.417 C 260.024 21.417,260.062 21.267,260.085 21.083 C 260.108 20.900,260.155 20.637,260.189 20.500 C 260.270 20.170,233.105 20.029,232.901 20.358 M3.229 28.793 C 3.126 28.861,3.036 29.179,3.030 29.500 C 3.011 30.520,2.983 30.667,2.809 30.667 C 2.715 30.667,2.671 30.760,2.711 30.875 C 2.751 30.990,2.693 31.346,2.583 31.667 C 2.473 31.988,2.397 32.475,2.415 32.750 C 2.432 33.025,2.386 33.330,2.311 33.428 C 2.237 33.526,2.155 33.863,2.130 34.178 C 2.104 34.493,2.008 34.806,1.917 34.875 C 1.812 34.953,1.843 35.061,2.000 35.164 C 2.208 35.301,2.194 35.329,1.917 35.333 C 1.729 35.336,1.658 35.392,1.756 35.461 C 1.966 35.610,1.970 35.923,1.765 36.111 C 1.675 36.193,1.669 36.154,1.749 36.016 C 1.836 35.865,1.821 35.821,1.706 35.892 C 1.608 35.953,1.549 36.266,1.574 36.589 C 1.600 36.911,1.561 37.212,1.488 37.258 C 1.414 37.303,1.350 37.470,1.344 37.628 C 1.312 38.536,1.225 38.943,1.019 39.159 C 0.858 39.329,0.846 39.421,0.979 39.465 C 1.083 39.500,1.113 39.616,1.044 39.723 C 0.975 39.829,0.906 40.067,0.890 40.250 C 0.830 40.925,0.631 41.755,0.486 41.932 C 0.404 42.032,0.384 42.162,0.442 42.220 C 0.500 42.278,0.443 42.454,0.315 42.611 C 0.162 42.801,0.154 42.855,0.292 42.772 C 0.584 42.597,0.551 42.806,0.238 43.119 C 0.042 43.316,0.026 43.413,0.176 43.506 C 0.298 43.581,0.321 43.717,0.234 43.856 C 0.156 43.981,0.069 44.252,0.040 44.458 L -0.011 44.833 8.929 44.833 C 16.720 44.833,17.857 44.802,17.775 44.589 C 17.723 44.454,17.754 44.299,17.842 44.245 C 17.930 44.190,17.971 43.968,17.931 43.752 C 17.889 43.518,17.952 43.323,18.087 43.271 C 18.215 43.222,18.316 42.943,18.318 42.634 C 18.323 41.740,18.370 41.428,18.531 41.223 C 18.625 41.104,18.616 40.988,18.508 40.921 C 18.385 40.846,18.385 40.715,18.507 40.486 C 18.603 40.307,18.637 40.086,18.581 39.997 C 18.526 39.907,18.616 39.832,18.782 39.831 C 19.037 39.829,19.045 39.804,18.833 39.667 C 18.687 39.572,18.665 39.504,18.780 39.503 C 18.890 39.501,18.975 39.263,18.974 38.958 C 18.972 38.284,19.169 37.333,19.311 37.333 C 19.369 37.333,19.428 37.165,19.442 36.958 C 19.476 36.434,19.581 36.030,19.717 35.894 C 19.781 35.830,19.832 35.697,19.831 35.597 C 19.829 35.498,19.756 35.529,19.667 35.667 C 19.570 35.817,19.504 35.837,19.503 35.718 C 19.501 35.609,19.580 35.470,19.678 35.410 C 19.776 35.349,19.813 35.188,19.761 35.051 C 19.708 34.915,19.719 34.718,19.783 34.613 C 19.848 34.508,19.918 34.309,19.938 34.170 C 19.959 34.030,20.007 33.707,20.044 33.452 C 20.082 33.196,20.200 32.900,20.306 32.794 C 20.528 32.572,20.570 32.270,20.361 32.399 C 20.285 32.447,20.222 32.376,20.222 32.243 C 20.222 32.109,20.293 32.000,20.379 32.000 C 20.465 32.000,20.493 31.890,20.442 31.755 C 20.390 31.621,20.425 31.463,20.519 31.405 C 20.613 31.347,20.650 31.197,20.602 31.072 C 20.554 30.947,20.586 30.800,20.674 30.746 C 20.762 30.691,20.833 30.572,20.833 30.480 C 20.833 30.389,20.740 30.370,20.625 30.439 C 20.467 30.534,20.468 30.501,20.631 30.299 C 20.749 30.153,20.878 29.895,20.916 29.725 C 20.955 29.556,21.035 29.250,21.095 29.047 L 21.203 28.678 12.310 28.673 C 7.419 28.671,3.332 28.724,3.229 28.793 M29.576 28.844 C 29.516 28.942,29.511 29.067,29.565 29.121 C 29.619 29.175,29.580 29.320,29.478 29.443 C 29.341 29.608,29.343 29.667,29.484 29.667 C 29.614 29.667,29.595 29.822,29.423 30.154 C 29.261 30.469,29.234 30.661,29.348 30.699 C 29.448 30.733,29.373 30.950,29.172 31.205 C 28.955 31.481,28.843 31.824,28.880 32.099 C 28.913 32.344,28.832 32.929,28.701 33.397 C 28.569 33.866,28.454 34.381,28.445 34.542 C 28.436 34.702,28.360 34.833,28.277 34.833 C 28.193 34.833,28.169 35.055,28.224 35.327 C 28.278 35.598,28.253 35.863,28.168 35.916 C 28.084 35.968,28.054 36.113,28.102 36.238 C 28.150 36.364,28.108 36.517,28.009 36.578 C 27.909 36.639,27.873 36.763,27.928 36.852 C 27.984 36.941,27.956 37.105,27.868 37.216 C 27.780 37.326,27.719 37.642,27.733 37.917 C 27.746 38.192,27.657 38.541,27.533 38.693 C 27.403 38.854,27.343 39.186,27.390 39.485 C 27.436 39.780,27.397 40.000,27.299 40.000 C 27.205 40.000,27.163 40.185,27.206 40.412 C 27.255 40.667,27.220 40.783,27.114 40.718 C 27.011 40.654,26.985 40.720,27.048 40.884 C 27.105 41.034,27.079 41.201,26.990 41.256 C 26.901 41.311,26.862 41.411,26.903 41.478 C 26.944 41.545,26.912 41.706,26.832 41.836 C 26.742 41.981,26.762 42.166,26.885 42.318 C 27.040 42.511,27.038 42.537,26.875 42.439 C 26.729 42.351,26.661 42.455,26.648 42.782 C 26.619 43.489,26.547 44.221,26.478 44.500 C 26.424 44.719,27.501 44.755,35.292 44.793 C 40.173 44.817,44.172 44.779,44.179 44.710 C 44.186 44.640,44.227 44.433,44.269 44.250 C 44.312 44.067,44.373 43.692,44.405 43.417 C 44.437 43.142,44.477 42.917,44.494 42.917 C 44.557 42.917,44.699 42.236,44.756 41.667 C 44.788 41.346,44.931 40.755,45.074 40.354 C 45.380 39.495,45.385 39.448,45.167 39.583 C 45.075 39.640,45.000 39.613,45.000 39.524 C 45.000 39.434,45.087 39.332,45.194 39.297 C 45.390 39.231,45.467 38.993,45.588 38.083 C 45.713 37.143,45.766 36.911,45.909 36.680 C 46.006 36.523,45.990 36.487,45.859 36.567 C 45.744 36.639,45.667 36.578,45.667 36.417 C 45.667 36.253,45.743 36.194,45.862 36.268 C 45.993 36.349,46.022 36.297,45.950 36.111 C 45.892 35.958,45.906 35.833,45.982 35.833 C 46.058 35.833,46.082 35.635,46.036 35.392 C 45.982 35.111,46.015 34.989,46.125 35.058 C 46.236 35.126,46.286 34.925,46.265 34.499 C 46.246 34.133,46.296 33.833,46.375 33.833 C 46.455 33.833,46.477 33.764,46.424 33.678 C 46.371 33.593,46.401 33.478,46.490 33.423 C 46.579 33.368,46.607 33.205,46.552 33.061 C 46.497 32.917,46.546 32.741,46.662 32.669 C 46.780 32.597,46.869 32.236,46.864 31.853 C 46.858 31.475,46.925 31.167,47.010 31.167 C 47.096 31.167,47.167 31.087,47.167 30.990 C 47.167 30.893,47.097 30.857,47.011 30.910 C 46.925 30.963,47.000 30.499,47.178 29.879 C 47.355 29.258,47.500 28.732,47.500 28.709 C 47.500 28.557,29.671 28.692,29.576 28.844 M382.121 28.989 C 382.072 29.178,382.104 29.333,382.192 29.333 C 382.281 29.333,382.294 29.427,382.222 29.542 C 382.150 29.656,382.115 29.889,382.143 30.060 C 382.171 30.230,382.122 30.325,382.034 30.271 C 381.947 30.217,381.869 30.340,381.862 30.545 C 381.832 31.440,381.688 32.191,381.504 32.412 C 381.394 32.544,381.358 32.739,381.424 32.845 C 381.489 32.951,381.444 33.098,381.324 33.173 C 381.150 33.280,381.147 33.359,381.308 33.553 C 381.469 33.747,381.466 33.845,381.292 34.024 C 381.172 34.148,381.055 34.438,381.033 34.667 C 380.944 35.606,380.909 35.755,380.750 35.875 C 380.645 35.953,380.677 36.061,380.833 36.164 C 381.001 36.274,381.014 36.329,380.875 36.331 C 380.760 36.332,380.667 36.521,380.667 36.750 C 380.667 36.979,380.577 37.167,380.467 37.167 C 380.319 37.167,380.315 37.215,380.454 37.354 C 380.678 37.578,380.539 38.044,380.293 37.892 C 380.180 37.822,380.158 37.983,380.229 38.363 C 380.289 38.681,380.280 38.998,380.210 39.067 C 380.140 39.137,380.076 39.244,380.067 39.306 C 380.058 39.367,379.986 39.754,379.907 40.167 C 379.829 40.579,379.780 40.973,379.799 41.042 C 379.818 41.110,379.774 41.167,379.701 41.167 C 379.628 41.167,379.547 41.410,379.520 41.708 C 379.428 42.763,379.400 42.925,379.274 43.128 C 379.202 43.244,379.229 43.333,379.335 43.333 C 379.444 43.333,379.413 43.444,379.262 43.595 C 378.950 43.907,378.922 44.167,379.200 44.167 C 379.356 44.167,379.356 44.211,379.200 44.367 C 379.090 44.477,379.000 44.627,379.000 44.700 C 379.000 44.773,383.069 44.832,388.042 44.831 C 393.941 44.829,396.996 44.772,396.833 44.667 C 396.696 44.578,396.665 44.504,396.765 44.503 C 396.865 44.501,396.933 44.278,396.917 44.007 C 396.900 43.712,396.955 43.556,397.056 43.618 C 397.153 43.678,397.182 43.614,397.125 43.464 C 397.070 43.323,397.110 43.123,397.213 43.020 C 397.351 42.882,397.342 42.833,397.180 42.833 C 397.003 42.833,397.000 42.784,397.165 42.585 C 397.278 42.449,397.329 42.230,397.279 42.099 C 397.229 41.968,397.295 41.820,397.427 41.769 C 397.559 41.718,397.667 41.595,397.667 41.495 C 397.667 41.395,397.592 41.360,397.500 41.417 C 397.408 41.473,397.333 41.445,397.333 41.353 C 397.333 41.261,397.404 41.143,397.489 41.090 C 397.575 41.037,397.639 40.864,397.631 40.705 C 397.623 40.546,397.718 40.079,397.843 39.667 C 397.968 39.254,398.075 38.842,398.081 38.750 C 398.087 38.658,398.151 38.490,398.223 38.375 C 398.299 38.252,398.272 38.167,398.156 38.167 C 398.010 38.167,398.007 38.109,398.145 37.943 C 398.247 37.820,398.281 37.670,398.221 37.610 C 398.160 37.549,398.185 37.500,398.275 37.500 C 398.366 37.500,398.455 37.294,398.473 37.042 C 398.492 36.790,398.531 36.258,398.560 35.860 C 398.588 35.462,398.710 35.076,398.830 35.002 C 398.950 34.928,399.002 34.747,398.946 34.600 C 398.890 34.453,398.916 34.333,399.005 34.333 C 399.094 34.333,399.167 34.221,399.167 34.083 C 399.167 33.946,399.073 33.832,398.958 33.831 C 398.829 33.829,398.813 33.782,398.917 33.706 C 399.075 33.589,399.163 33.271,399.215 32.625 C 399.228 32.465,399.290 32.333,399.353 32.333 C 399.417 32.333,399.430 32.183,399.382 32.000 C 399.326 31.787,399.377 31.666,399.522 31.664 C 399.713 31.662,399.712 31.638,399.520 31.516 C 399.325 31.392,399.329 31.313,399.543 31.007 C 399.682 30.808,399.755 30.488,399.705 30.296 C 399.655 30.105,399.682 29.990,399.765 30.041 C 399.849 30.092,399.922 29.879,399.929 29.567 L 399.942 29.000 391.254 29.000 C 385.326 29.000,382.510 28.944,382.389 28.822 C 382.263 28.697,382.185 28.745,382.121 28.989 M386.887 28.792 C 389.345 28.818,393.320 28.818,395.720 28.792 C 398.120 28.766,396.108 28.744,391.250 28.744 C 386.392 28.744,384.428 28.766,386.887 28.792 M20.891 28.958 C 20.933 29.027,16.970 29.083,12.083 29.083 C 7.197 29.083,3.233 29.027,3.276 28.958 C 3.318 28.890,7.282 28.833,12.083 28.833 C 16.885 28.833,20.848 28.890,20.891 28.958 M42.887 28.958 C 40.487 28.984,36.512 28.984,34.053 28.958 C 31.595 28.932,33.558 28.911,38.417 28.911 C 43.275 28.911,45.287 28.932,42.887 28.958 " stroke="none" fill="#fc9c34" fill-rule="evenodd"></path><path id="path1" d="M62.707 1.792 C 62.516 2.777,62.197 4.521,61.999 5.667 C 61.801 6.813,61.462 8.725,61.246 9.917 C 61.031 11.108,60.658 13.208,60.417 14.583 C 59.895 17.572,59.514 19.727,58.918 23.083 C 58.310 26.505,57.932 28.641,57.412 31.583 C 56.621 36.062,56.334 37.555,55.925 39.333 C 55.704 40.296,55.473 41.404,55.412 41.796 L 55.302 42.509 57.691 42.463 L 60.079 42.417 60.373 41.333 C 60.535 40.737,60.750 39.781,60.851 39.208 C 61.069 37.969,61.215 37.918,61.684 38.917 C 61.878 39.329,62.103 39.667,62.185 39.667 C 62.267 39.667,62.333 39.760,62.333 39.875 C 62.333 40.245,64.037 41.661,65.074 42.154 C 68.836 43.939,74.054 43.279,78.167 40.496 C 79.272 39.748,81.333 37.822,81.333 37.538 C 81.333 37.425,81.405 37.333,81.492 37.333 C 82.031 37.333,84.707 32.369,85.149 30.549 C 85.233 30.201,85.467 29.317,85.669 28.583 C 86.588 25.239,86.117 19.745,84.715 17.462 C 84.505 17.120,84.333 16.801,84.333 16.753 C 84.333 16.706,84.202 16.522,84.042 16.345 C 83.881 16.169,83.667 15.925,83.566 15.804 C 80.875 12.572,74.836 11.671,70.417 13.840 C 70.050 14.020,69.689 14.167,69.614 14.167 C 69.539 14.167,69.232 14.354,68.931 14.583 C 68.631 14.812,68.311 15.000,68.221 15.000 C 68.131 15.000,67.433 15.607,66.672 16.348 C 65.684 17.310,65.316 17.585,65.390 17.307 C 65.590 16.549,66.641 10.864,67.326 6.833 C 67.520 5.688,67.865 3.775,68.091 2.583 C 68.318 1.392,68.502 0.323,68.501 0.208 C 68.500 0.050,67.844 0.000,65.777 0.000 L 63.054 0.000 62.707 1.792 M145.610 0.125 C 145.568 0.194,145.448 0.850,145.343 1.583 C 145.238 2.317,145.011 3.667,144.840 4.583 C 144.668 5.500,144.328 7.375,144.085 8.750 C 143.841 10.125,143.500 12.037,143.326 13.000 C 143.153 13.963,142.964 15.144,142.906 15.625 C 142.782 16.670,142.599 16.840,142.273 16.214 C 140.442 12.692,134.317 11.648,128.953 13.945 C 127.093 14.740,123.167 17.823,123.167 18.487 C 123.167 18.586,123.104 18.667,123.028 18.667 C 122.823 18.667,121.293 21.082,120.706 22.333 C 119.892 24.068,119.333 25.439,119.333 25.703 C 119.333 25.837,119.176 26.540,118.985 27.265 C 118.135 30.477,118.562 35.629,119.883 38.080 C 123.323 44.468,132.402 44.964,138.382 39.090 C 139.031 38.451,139.519 38.044,139.464 38.185 C 139.410 38.327,139.319 38.961,139.261 39.596 C 139.204 40.231,139.116 41.144,139.066 41.625 L 138.976 42.500 141.488 42.500 C 143.982 42.500,144.000 42.497,143.998 42.125 C 143.995 41.296,144.848 35.823,145.539 32.250 C 145.734 31.242,145.941 30.004,146.000 29.500 C 146.059 28.996,146.268 27.758,146.464 26.750 C 146.660 25.742,146.981 23.979,147.177 22.833 C 147.373 21.688,147.704 19.813,147.914 18.667 C 148.124 17.521,148.460 15.646,148.661 14.500 C 149.323 10.723,149.854 7.774,150.179 6.067 C 150.356 5.141,150.504 4.166,150.508 3.900 C 150.512 3.634,150.688 2.648,150.899 1.708 L 151.283 0.000 148.485 0.000 C 146.946 0.000,145.652 0.056,145.610 0.125 M188.190 1.673 C 187.994 2.593,187.833 3.504,187.833 3.698 C 187.833 3.891,187.654 4.957,187.435 6.066 C 187.216 7.176,186.873 9.021,186.673 10.167 C 186.473 11.313,186.134 13.225,185.919 14.417 C 185.704 15.608,185.369 17.521,185.175 18.667 C 184.980 19.813,184.661 21.575,184.465 22.583 C 184.269 23.592,184.081 24.679,184.048 25.000 C 184.015 25.321,183.836 26.408,183.652 27.417 C 182.784 32.161,182.501 33.734,182.169 35.667 C 181.972 36.813,181.628 38.688,181.405 39.833 C 181.181 40.979,180.999 42.048,180.999 42.208 C 181.000 42.583,186.403 42.664,186.542 42.292 C 186.584 42.177,186.708 41.558,186.816 40.917 C 186.925 40.275,187.174 38.925,187.370 37.917 C 187.565 36.908,187.752 35.821,187.784 35.500 C 187.816 35.179,188.024 33.979,188.246 32.833 C 188.468 31.688,188.810 29.813,189.006 28.667 C 189.202 27.521,189.537 25.608,189.752 24.417 C 189.967 23.225,190.303 21.313,190.500 20.167 C 190.697 19.021,191.033 17.108,191.248 15.917 C 191.463 14.725,191.800 12.813,191.997 11.667 C 192.194 10.521,192.533 8.608,192.750 7.417 C 193.407 3.813,193.816 1.455,193.912 0.708 L 194.004 0.000 191.275 0.000 L 188.546 -0.000 188.190 1.673 M101.667 12.785 C 99.281 13.201,96.633 13.987,95.333 14.666 C 95.013 14.834,94.615 15.014,94.450 15.066 C 94.218 15.141,94.169 15.285,94.232 15.706 C 94.783 19.391,94.620 19.122,95.923 18.505 C 98.677 17.202,101.882 16.619,104.219 16.997 C 107.251 17.488,108.462 19.274,108.093 22.715 L 107.979 23.782 105.603 23.885 C 95.207 24.334,88.540 29.159,88.504 36.261 C 88.469 43.298,97.699 45.600,104.429 40.233 L 105.583 39.313 105.631 40.907 L 105.679 42.500 108.144 42.500 L 110.609 42.500 110.818 40.125 C 110.933 38.819,111.210 36.737,111.433 35.500 C 111.657 34.262,111.993 32.350,112.181 31.250 C 112.369 30.150,112.699 28.313,112.915 27.167 C 114.640 18.007,113.097 14.214,107.114 12.914 C 106.055 12.683,102.703 12.604,101.667 12.785 M164.250 12.767 C 164.067 12.811,163.204 13.001,162.333 13.191 C 160.332 13.626,158.740 14.210,156.709 15.255 C 156.662 15.279,157.363 18.888,157.431 18.974 C 157.456 19.006,157.951 18.807,158.530 18.532 C 165.538 15.202,171.278 16.924,170.784 22.209 C 170.630 23.857,170.654 23.833,169.191 23.836 C 162.149 23.852,156.594 25.967,153.211 29.921 C 150.005 33.667,150.676 40.064,154.500 42.212 C 156.458 43.312,162.016 43.404,163.402 42.360 C 163.502 42.284,163.846 42.119,164.167 41.993 C 164.927 41.693,166.380 40.809,166.550 40.542 C 166.623 40.427,166.794 40.333,166.930 40.333 C 167.066 40.333,167.216 40.232,167.263 40.109 C 167.311 39.985,167.581 39.713,167.864 39.503 L 168.379 39.123 168.260 40.811 L 168.140 42.500 170.737 42.500 L 173.333 42.500 173.333 41.016 C 173.333 40.188,173.516 38.475,173.747 37.141 C 173.975 35.826,174.315 33.850,174.504 32.750 C 174.692 31.650,175.006 29.925,175.201 28.917 C 175.397 27.908,175.611 26.633,175.677 26.083 C 175.743 25.533,175.890 24.708,176.003 24.250 C 176.551 22.030,176.088 17.720,175.165 16.465 C 174.983 16.217,174.831 15.954,174.829 15.882 C 174.822 15.669,173.296 14.276,172.718 13.954 C 170.953 12.974,166.189 12.307,164.250 12.767 M207.083 12.769 C 205.225 13.224,202.574 14.184,202.333 14.489 C 202.287 14.547,201.860 14.876,201.384 15.221 C 200.439 15.906,198.500 18.168,198.500 18.586 C 198.500 18.640,198.332 19.037,198.127 19.467 C 196.917 22.011,197.632 25.195,199.873 27.241 C 200.532 27.842,201.131 28.333,201.205 28.333 C 201.279 28.333,201.620 28.505,201.962 28.715 C 202.304 28.926,203.146 29.316,203.833 29.584 C 207.898 31.167,209.212 33.141,207.958 35.781 C 206.538 38.771,201.185 39.891,197.583 37.950 C 195.472 36.813,195.454 36.805,195.307 37.028 C 194.736 37.894,193.295 41.071,193.450 41.122 C 193.552 41.156,193.804 41.330,194.010 41.509 C 194.216 41.687,194.467 41.833,194.567 41.833 C 194.668 41.833,195.200 42.013,195.750 42.234 C 199.586 43.773,205.131 43.367,208.949 41.267 C 209.425 41.005,209.853 40.688,209.902 40.562 C 209.950 40.436,210.079 40.333,210.188 40.333 C 210.759 40.333,212.666 37.766,213.344 36.083 C 214.020 34.408,213.951 30.929,213.217 29.667 C 212.059 27.677,210.772 26.758,206.667 24.990 C 203.008 23.414,202.195 21.831,203.718 19.247 C 203.954 18.847,204.634 18.150,205.017 17.917 C 206.423 17.058,206.312 17.083,208.750 17.095 C 211.095 17.107,213.262 17.711,213.741 18.486 C 213.983 18.877,214.273 18.616,214.790 17.540 C 215.087 16.922,215.518 16.080,215.748 15.669 C 216.455 14.406,216.171 14.126,213.250 13.208 C 211.949 12.799,208.084 12.524,207.083 12.769 M310.667 13.487 C 308.022 13.752,304.223 15.385,302.494 17.000 C 302.346 17.137,301.969 17.482,301.655 17.766 C 300.035 19.228,297.366 23.145,297.339 24.099 C 297.336 24.200,297.209 24.531,297.057 24.836 C 295.475 28.006,295.464 34.048,297.033 37.333 C 299.741 43.004,307.485 44.856,314.417 41.490 C 314.783 41.311,315.151 41.166,315.234 41.166 C 315.317 41.166,315.631 40.979,315.931 40.750 C 316.232 40.521,316.527 40.333,316.586 40.333 C 316.801 40.333,319.096 38.336,319.667 37.652 C 319.987 37.268,320.381 36.835,320.542 36.690 C 320.702 36.545,320.833 36.342,320.833 36.239 C 320.833 36.136,320.975 35.923,321.149 35.766 C 322.500 34.543,324.246 29.140,324.450 25.550 C 324.603 22.864,323.436 18.000,322.639 18.000 C 322.562 18.000,322.500 17.905,322.500 17.788 C 322.500 17.446,319.978 15.000,319.625 15.000 C 319.539 15.000,319.260 14.852,319.006 14.671 C 317.650 13.705,313.864 13.168,310.667 13.487 M344.750 13.484 C 343.130 13.679,340.330 14.826,339.950 15.448 C 339.877 15.568,339.738 15.667,339.643 15.667 C 339.484 15.667,338.226 16.767,337.770 17.304 C 337.248 17.918,336.966 18.188,336.906 18.128 C 336.850 18.072,337.131 16.024,337.411 14.454 L 337.493 13.991 335.038 14.037 L 332.583 14.083 332.452 15.417 C 332.380 16.150,332.136 17.773,331.911 19.024 C 331.685 20.274,331.500 21.474,331.501 21.690 C 331.501 21.907,331.358 22.796,331.181 23.667 C 330.852 25.291,330.302 28.320,329.667 32.000 C 329.133 35.094,328.516 38.533,328.154 40.433 C 327.978 41.359,327.833 42.203,327.833 42.308 C 327.833 42.445,328.594 42.500,330.477 42.500 L 333.121 42.500 333.477 40.827 C 333.673 39.907,333.833 38.988,333.833 38.785 C 333.832 38.583,334.015 37.479,334.238 36.333 C 334.461 35.188,334.804 33.313,335.000 32.167 C 335.196 31.021,335.539 29.146,335.762 28.000 C 335.985 26.854,336.168 25.714,336.167 25.466 C 336.166 24.537,337.461 21.964,338.540 20.754 C 342.191 16.657,347.362 16.919,348.556 21.261 C 349.001 22.883,348.926 23.823,347.921 29.167 C 347.706 30.313,347.370 32.188,347.175 33.333 C 346.981 34.479,346.661 36.242,346.465 37.250 C 346.269 38.258,346.051 39.533,345.979 40.083 C 345.908 40.633,345.798 41.402,345.736 41.792 L 345.623 42.500 348.288 42.500 L 350.953 42.500 351.154 41.208 C 351.264 40.498,351.533 38.942,351.751 37.750 C 351.970 36.558,352.308 34.646,352.504 33.500 C 352.700 32.354,353.043 30.479,353.266 29.333 C 353.489 28.188,353.670 27.062,353.669 26.833 C 353.637 21.211,359.984 16.075,364.089 18.402 C 366.174 19.584,366.853 22.277,366.110 26.417 C 365.945 27.333,365.634 29.058,365.417 30.250 C 365.201 31.442,364.864 33.354,364.667 34.500 C 364.471 35.646,364.134 37.521,363.918 38.667 C 363.703 39.813,363.480 41.144,363.424 41.625 L 363.322 42.500 365.975 42.500 C 368.927 42.500,368.825 42.544,368.831 41.266 C 368.832 41.000,368.980 40.025,369.159 39.100 C 369.527 37.192,370.103 34.047,370.732 30.500 C 370.968 29.171,371.312 27.258,371.497 26.250 C 372.211 22.359,371.589 16.500,370.462 16.500 C 370.391 16.500,370.331 16.406,370.328 16.292 C 370.323 16.059,369.410 15.002,369.211 14.997 C 369.141 14.996,368.907 14.808,368.691 14.580 C 368.475 14.353,368.227 14.167,368.140 14.167 C 368.053 14.167,367.630 14.002,367.199 13.802 C 364.959 12.757,359.822 13.577,357.417 15.363 C 356.519 16.030,354.758 17.621,354.404 18.085 C 353.895 18.752,353.667 18.821,353.667 18.308 C 353.667 17.664,352.768 16.118,351.889 15.252 C 350.334 13.720,347.860 13.107,344.750 13.484 M283.833 13.765 C 283.421 13.898,282.736 14.077,282.312 14.162 C 279.826 14.661,274.386 18.320,273.779 19.901 C 273.723 20.047,273.610 20.167,273.528 20.167 C 273.342 20.167,271.863 22.591,271.274 23.861 C 269.521 27.644,269.080 33.919,270.391 36.450 C 270.542 36.743,270.667 37.074,270.667 37.184 C 270.667 37.295,270.854 37.631,271.083 37.931 C 271.313 38.232,271.500 38.543,271.500 38.622 C 271.500 38.880,273.229 40.579,274.056 41.134 C 277.455 43.415,283.652 43.784,288.665 42.003 C 289.444 41.726,290.100 41.500,290.124 41.500 C 290.236 41.500,289.941 37.566,289.820 37.433 C 289.740 37.345,289.318 37.434,288.806 37.646 C 286.540 38.588,282.569 38.990,281.000 38.436 C 280.587 38.291,280.149 38.170,280.025 38.169 C 279.628 38.165,277.842 36.967,277.287 36.333 C 276.285 35.187,276.159 34.988,275.734 33.869 C 275.208 32.483,275.131 29.082,275.590 27.500 C 275.737 26.996,275.916 26.349,275.989 26.062 C 276.105 25.609,276.547 24.652,277.019 23.833 C 277.098 23.696,277.311 23.311,277.491 22.979 C 277.672 22.646,277.935 22.330,278.076 22.276 C 278.218 22.222,278.333 22.103,278.333 22.013 C 278.333 21.815,279.959 20.167,280.154 20.167 C 280.230 20.167,280.385 20.055,280.498 19.919 C 282.325 17.717,289.186 17.156,292.532 18.936 L 292.981 19.174 293.666 17.712 C 294.043 16.908,294.504 15.962,294.689 15.611 C 294.875 15.259,295.002 14.949,294.972 14.921 C 294.760 14.730,293.541 14.166,293.336 14.165 C 293.197 14.163,292.608 14.013,292.027 13.831 C 290.670 13.406,285.084 13.360,283.833 13.765 M76.229 17.613 C 76.791 17.858,77.405 18.195,77.594 18.363 C 77.783 18.530,78.022 18.667,78.125 18.667 C 78.227 18.667,78.356 18.810,78.412 18.985 C 78.467 19.159,78.611 19.340,78.732 19.387 C 79.467 19.669,80.500 22.978,80.500 25.050 C 80.500 33.515,73.821 40.353,67.519 38.339 C 63.694 37.117,62.334 33.784,63.481 28.440 C 63.675 27.536,63.833 26.595,63.833 26.349 C 63.833 25.141,64.996 22.582,66.239 21.055 C 68.919 17.762,73.197 16.288,76.229 17.613 M137.788 17.708 C 140.812 19.207,141.837 21.916,141.019 26.250 C 140.093 31.162,139.944 31.802,139.528 32.667 C 138.735 34.312,136.867 36.667,136.354 36.667 C 136.266 36.667,136.169 36.733,136.139 36.815 C 136.029 37.109,134.071 38.041,132.922 38.347 C 125.499 40.322,121.738 32.213,125.999 23.417 C 128.419 18.420,133.884 15.774,137.788 17.708 M314.378 17.846 C 314.984 18.036,315.568 18.298,315.677 18.429 C 315.785 18.560,315.959 18.670,316.062 18.675 C 316.285 18.684,317.603 20.296,317.768 20.760 C 317.831 20.938,318.032 21.421,318.216 21.833 C 319.197 24.044,318.822 29.027,317.474 31.689 C 317.305 32.023,317.167 32.384,317.167 32.492 C 317.167 32.600,316.979 32.935,316.750 33.235 C 316.521 33.536,316.333 33.857,316.333 33.948 C 316.333 34.040,316.183 34.251,316.000 34.417 C 315.817 34.583,315.667 34.813,315.667 34.929 C 315.667 35.044,315.596 35.164,315.511 35.194 C 315.425 35.225,314.880 35.700,314.299 36.250 C 310.869 39.500,306.427 39.888,303.713 37.173 C 300.778 34.239,300.643 28.675,303.379 23.376 C 303.675 22.804,303.973 22.336,304.042 22.335 C 304.110 22.334,304.167 22.229,304.167 22.101 C 304.167 21.688,307.283 18.667,307.709 18.667 C 307.784 18.667,308.045 18.535,308.290 18.375 C 309.576 17.532,312.555 17.273,314.378 17.846 M107.242 28.542 C 106.893 31.499,106.088 34.301,105.315 35.248 C 104.640 36.074,103.322 37.314,103.017 37.411 C 102.824 37.472,102.667 37.582,102.667 37.655 C 102.667 38.122,100.045 38.874,98.395 38.881 C 95.393 38.894,94.247 37.777,94.367 34.958 C 94.549 30.686,97.571 28.561,104.583 27.773 C 104.858 27.742,105.592 27.705,106.214 27.692 L 107.345 27.667 107.242 28.542 M169.932 28.042 C 169.873 28.248,169.783 28.792,169.732 29.250 C 169.353 32.674,168.620 34.559,167.023 36.220 C 163.147 40.252,156.797 39.688,156.773 35.310 C 156.754 31.813,159.628 29.044,164.124 28.228 C 167.845 27.552,170.092 27.480,169.932 28.042 " stroke="none" fill="#4c4c4c" fill-rule="evenodd"></path><path id="path2" d="M3.222 28.917 C 3.222 29.026,6.287 29.083,12.083 29.083 C 17.880 29.083,20.944 29.026,20.944 28.917 C 20.944 28.808,17.880 28.750,12.083 28.750 C 6.287 28.750,3.222 28.808,3.222 28.917 M382.476 28.877 C 382.546 28.946,386.536 28.984,391.343 28.960 L 400.083 28.917 391.217 28.833 C 386.340 28.787,382.407 28.807,382.476 28.877 M34.053 28.958 C 36.512 28.984,40.487 28.984,42.887 28.958 C 45.287 28.932,43.275 28.911,38.417 28.911 C 33.558 28.911,31.595 28.932,34.053 28.958 M399.831 29.542 C 399.830 29.656,399.780 29.930,399.721 30.151 C 399.659 30.385,399.679 30.512,399.771 30.455 C 399.934 30.354,400.069 29.333,399.919 29.333 C 399.872 29.333,399.832 29.427,399.831 29.542 M29.276 30.034 C 29.141 30.552,29.244 30.579,29.469 30.084 C 29.574 29.854,29.595 29.667,29.516 29.667 C 29.437 29.667,29.329 29.832,29.276 30.034 M399.535 31.005 C 399.283 31.409,399.282 31.500,399.528 31.500 C 399.635 31.500,399.673 31.451,399.613 31.390 C 399.552 31.330,399.588 31.178,399.692 31.053 C 399.796 30.928,399.849 30.793,399.809 30.754 C 399.770 30.714,399.646 30.827,399.535 31.005 M257.353 34.028 C 257.342 34.181,257.290 34.443,257.237 34.611 C 257.147 34.901,257.151 34.901,257.332 34.620 C 257.437 34.456,257.489 34.194,257.447 34.036 C 257.379 33.778,257.370 33.778,257.353 34.028 M18.581 39.997 C 18.637 40.086,18.603 40.307,18.507 40.486 C 18.408 40.671,18.397 40.853,18.481 40.905 C 18.562 40.955,18.674 40.828,18.729 40.623 C 18.877 40.072,18.855 39.833,18.657 39.833 C 18.560 39.833,18.526 39.907,18.581 39.997 M228.278 42.278 C 228.107 42.448,228.146 43.000,228.328 43.000 C 228.417 43.000,228.443 42.880,228.387 42.733 C 228.331 42.586,228.389 42.400,228.517 42.319 C 228.645 42.238,228.669 42.171,228.569 42.169 C 228.470 42.168,228.339 42.217,228.278 42.278 M255.167 44.250 C 255.070 44.505,255.028 44.750,255.074 44.796 C 255.120 44.842,255.237 44.671,255.333 44.417 C 255.430 44.162,255.472 43.916,255.426 43.870 C 255.380 43.825,255.263 43.995,255.167 44.250 " stroke="none" fill="#f49c34" fill-rule="evenodd"></path></g></svg>